<?xml version="1.0" standalone="no"?>
<!DOCTYPE svg PUBLIC "-//W3C//DTD SVG 20010904//EN"
 "http://www.w3.org/TR/2001/REC-SVG-20010904/DTD/svg10.dtd">
<svg version="1.0" xmlns="http://www.w3.org/2000/svg"
 width="1200pt" height="1200pt" viewBox="424 424 1200 1200"
 preserveAspectRatio="xMidYMid meet">

<defs>
  <clipPath id="circleClip">
    <circle cx="10240" cy="10240" r="6000"/>
  </clipPath>
</defs>

<circle cx="1024" cy="1024" r="600" fill="white" />

<g transform="translate(0,2048) scale(0.100000,-0.100000)"
fill="#000000" stroke="none" clip-path="url(#circleClip)">
<path d="M0 10240 l0 -10240 10240 0 10240 0 0 10240 0 10240 -10240 0 -10240
0 0 -10240z m10281 4246 l139 -299 1 -1426 0 -1426 110 115 c183 191 305 363
418 588 117 235 200 472 250 719 53 257 65 381 65 678 1 289 -11 422 -60 675
-29 150 -29 156 -3 105 214 -427 298 -834 269 -1301 -23 -388 -96 -697 -247
-1058 -170 -403 -372 -703 -677 -1006 l-126 -125 0 -182 c0 -105 4 -183 9
-183 23 0 297 148 396 215 122 81 266 204 336 286 214 252 355 537 418 846 17
84 61 389 61 425 0 34 13 -12 31 -113 19 -99 21 -138 16 -299 -9 -278 -57
-474 -181 -725 -145 -294 -289 -457 -648 -731 -125 -95 -236 -191 -315 -271
l-123 -123 0 -385 c0 -212 2 -385 5 -385 13 0 213 95 305 145 132 72 359 222
470 311 477 384 771 886 867 1479 15 89 18 167 17 405 0 162 -6 327 -11 365
-6 39 -9 72 -7 74 10 11 85 -185 114 -299 53 -209 68 -529 35 -759 -59 -412
-238 -833 -502 -1173 -290 -375 -664 -685 -1180 -978 l-113 -64 0 -1328 0
-1328 -190 0 -190 0 0 1501 0 1502 -93 191 c-197 404 -371 655 -707 1021 -263
285 -378 441 -480 644 -124 249 -177 449 -196 738 -13 204 32 485 106 663 35
86 56 113 46 62 -3 -18 -11 -105 -16 -193 -39 -588 132 -1059 543 -1496 78
-82 155 -152 477 -433 96 -84 205 -181 241 -216 37 -35 70 -64 73 -64 3 0 5
424 4 941 l-3 942 -65 39 c-230 140 -408 329 -511 545 -145 304 -151 763 -14
1052 38 80 50 89 34 26 -6 -22 -13 -130 -16 -240 -4 -160 -2 -222 11 -310 41
-261 153 -483 329 -652 70 -67 212 -173 231 -173 3 0 6 665 7 1478 l1 1477 50
-105 c28 -58 113 -239 189 -404z"/>
</g>

</svg>
