<?xml version="1.0" encoding="utf-8"?>
<svg viewBox="0 0 1036.4891 300.713" xmlns="http://www.w3.org/2000/svg">
  <defs>
    <clipPath id="circleClip">
      <circle cx="10240" cy="10240" r="6000"/>
    </clipPath>
  </defs>
  <circle cx="150" cy="150.713" r="150" fill="white" style="" transform="matrix(1, 0, 0, 1, 5.684341886080802e-14, 0)"/>
  <g transform="matrix(0.02500000223517418, 0, 0, -0.02500000223517418, -105.99932098388669, 406.00006103515625)" fill="#000000" stroke="none" clip-path="url(#circleClip)" style="">
    <path d="M0 10240 l0 -10240 10240 0 10240 0 0 10240 0 10240 -10240 0 -10240 0 0 -10240z m10281 4246 l139 -299 1 -1426 0 -1426 110 115 c183 191 305 363 418 588 117 235 200 472 250 719 53 257 65 381 65 678 1 289 -11 422 -60 675 -29 150 -29 156 -3 105 214 -427 298 -834 269 -1301 -23 -388 -96 -697 -247 -1058 -170 -403 -372 -703 -677 -1006 l-126 -125 0 -182 c0 -105 4 -183 9 -183 23 0 297 148 396 215 122 81 266 204 336 286 214 252 355 537 418 846 17 84 61 389 61 425 0 34 13 -12 31 -113 19 -99 21 -138 16 -299 -9 -278 -57 -474 -181 -725 -145 -294 -289 -457 -648 -731 -125 -95 -236 -191 -315 -271 l-123 -123 0 -385 c0 -212 2 -385 5 -385 13 0 213 95 305 145 132 72 359 222 470 311 477 384 771 886 867 1479 15 89 18 167 17 405 0 162 -6 327 -11 365 -6 39 -9 72 -7 74 10 11 85 -185 114 -299 53 -209 68 -529 35 -759 -59 -412 -238 -833 -502 -1173 -290 -375 -664 -685 -1180 -978 l-113 -64 0 -1328 0 -1328 -190 0 -190 0 0 1501 0 1502 -93 191 c-197 404 -371 655 -707 1021 -263 285 -378 441 -480 644 -124 249 -177 449 -196 738 -13 204 32 485 106 663 35 86 56 113 46 62 -3 -18 -11 -105 -16 -193 -39 -588 132 -1059 543 -1496 78 -82 155 -152 477 -433 96 -84 205 -181 241 -216 37 -35 70 -64 73 -64 3 0 5 424 4 941 l-3 942 -65 39 c-230 140 -408 329 -511 545 -145 304 -151 763 -14 1052 38 80 50 89 34 26 -6 -22 -13 -130 -16 -240 -4 -160 -2 -222 11 -310 41 -261 153 -483 329 -652 70 -67 212 -173 231 -173 3 0 6 665 7 1478 l1 1477 50 -105 c28 -58 113 -239 189 -404z"/>
  </g>
  <path d="M 417.15 98.463 Q 416.25 110.613 412.35 148.563 Q 409.05 182.013 407.25 202.413 Q 405.3 203.013 401.775 203.088 Q 398.25 203.163 391.05 203.163 Q 389.25 200.913 388.125 197.538 Q 387 194.163 385.8 189.063 Q 384.3 182.913 383.55 181.113 Q 378.6 198.513 377.4 202.413 Q 372.6 203.313 368.1 203.313 Q 363.9 203.313 360.15 202.713 L 359.25 195.963 Q 355.35 172.713 352.725 147.138 Q 350.1 121.563 349.2 98.013 Q 355.05 96.963 361.2 96.963 L 367.95 97.113 Q 372.15 97.413 375.15 97.413 Q 375.75 104.163 375.75 121.713 L 375.75 124.563 Q 375.75 142.863 376.65 150.813 Q 377.25 148.713 378.15 144.213 Q 378.9 139.863 379.8 136.863 Q 380.7 133.863 382.65 131.613 Q 387.45 134.763 390 150.813 L 390.45 130.863 Q 391.05 107.163 391.8 98.463 Q 397.5 97.113 404.7 97.113 Q 410.55 97.113 416.1 97.713 L 417.15 98.463 Z" style="text-transform: capitalize;"/>
  <path d="M 490.343 202.413 Q 484.193 203.463 474.143 203.463 Q 469.043 203.463 464.843 203.763 Q 463.943 197.313 463.493 180.963 Q 463.193 168.363 462.143 161.613 L 456.443 161.313 Q 451.943 161.313 449.543 161.913 Q 449.093 166.263 449.093 170.163 Q 449.093 176.913 449.243 180.213 L 449.243 184.113 L 449.393 188.013 Q 449.393 197.013 448.643 201.663 Q 445.193 203.613 440.243 203.613 Q 437.843 203.613 434.243 203.313 L 432.893 203.163 Q 430.193 202.863 429.293 202.863 L 424.493 203.163 Q 423.443 189.663 422.393 162.513 Q 421.343 135.363 421.343 114.213 Q 421.343 102.213 421.493 97.413 L 438.443 97.113 Q 442.343 97.113 445.493 98.163 Q 446.243 104.613 446.543 113.013 L 446.693 116.613 Q 446.993 123.213 447.443 127.638 Q 447.893 132.063 448.943 137.313 L 454.643 137.913 Q 456.143 137.913 457.568 137.613 Q 458.993 137.313 460.343 137.163 L 460.643 137.163 Q 461.693 125.763 461.693 115.113 Q 461.693 107.313 461.243 98.313 Q 464.693 97.263 469.643 96.663 Q 474.593 96.063 479.243 96.063 Q 483.293 96.063 486.293 96.363 Z" style="text-transform: capitalize;"/>
  <path d="M 528.145 98.013 Q 528.145 115.563 527.695 133.413 Q 527.095 157.113 527.095 170.763 Q 527.095 186.513 527.995 202.113 Q 525.745 204.363 516.295 204.363 Q 510.895 204.363 508.345 204.213 L 506.545 204.063 L 503.845 203.913 Q 500.845 203.913 496.195 205.113 Q 497.095 192.063 497.095 177.363 Q 497.095 171.513 496.795 160.113 L 496.645 151.413 Q 496.045 135.513 496.045 125.613 Q 496.045 110.763 497.395 96.363 Q 499.345 96.063 501.595 96.063 Q 502.795 96.063 504.895 96.288 Q 506.995 96.513 509.845 96.363 Q 517.645 96.813 522.295 96.663 L 528.145 96.663 Z" style="text-transform: capitalize;"/>
  <path d="M 598.645 97.863 Q 598.945 102.963 598.945 107.463 Q 598.945 116.163 597.895 123.063 Q 592.945 122.163 590.095 122.163 L 583.045 122.013 Q 579.145 122.013 579.145 122.463 Q 578.845 124.563 578.845 131.313 Q 578.845 144.513 579.895 202.413 Q 575.545 203.163 569.695 203.163 L 565.345 203.163 Q 557.845 203.163 551.545 204.213 Q 551.095 203.463 550.87 201.138 Q 550.645 198.813 550.795 196.863 L 550.795 189.513 L 550.945 176.013 Q 550.945 148.713 549.745 122.763 Q 548.095 122.013 545.095 122.013 L 539.095 122.163 Q 533.995 122.163 531.745 121.413 Q 531.295 120.513 530.995 116.463 Q 530.695 112.413 530.695 107.313 Q 530.695 99.813 530.845 96.513 L 537.295 96.513 L 543.145 96.363 L 551.545 96.363 L 560.245 96.213 Q 582.595 96.213 596.695 97.863 L 598.645 97.863 Z" style="text-transform: capitalize;"/>
  <path d="M 670.041 189.513 Q 670.041 197.163 668.391 203.163 Q 661.791 203.163 648.891 203.463 L 629.241 203.613 Q 615.891 203.613 602.541 202.713 Q 602.691 197.913 602.091 165.363 Q 601.641 146.913 601.641 137.013 Q 601.641 116.463 602.691 98.763 L 615.891 98.313 Q 638.091 97.413 649.791 97.413 Q 659.841 97.413 669.291 98.163 Q 669.891 101.313 669.891 105.513 Q 669.891 107.763 669.591 112.863 Q 669.291 117.663 669.291 120.363 Q 660.291 122.313 649.191 122.313 L 629.691 122.463 Q 628.941 129.513 628.941 134.163 Q 628.941 137.763 629.841 140.463 L 639.741 139.263 Q 641.841 139.263 646.041 139.563 L 647.991 139.713 Q 648.741 144.213 648.741 149.463 L 648.441 161.463 Q 643.641 162.813 635.541 162.813 L 631.641 162.663 Q 630.591 162.663 630.291 162.963 L 629.691 170.763 Q 629.691 176.913 630.291 180.963 Q 638.091 180.963 645.441 181.413 Q 647.991 181.563 651.741 181.713 Q 655.491 181.863 660.591 181.863 L 669.741 181.563 Q 670.041 188.463 670.041 189.513 Z" style="text-transform: capitalize;"/>
  <path d="M 761.24 152.763 Q 766.94 159.963 769.64 164.688 Q 772.34 169.413 772.34 175.713 Q 772.34 178.263 771.89 181.263 Q 769.49 194.613 759.44 199.488 Q 749.39 204.363 733.64 204.363 Q 728.99 204.363 704.54 202.563 Q 704.09 191.313 704.09 166.563 Q 704.09 139.713 704.24 118.113 L 704.24 98.613 Q 717.44 94.863 729.59 94.863 Q 746.54 94.863 757.415 102.288 Q 768.29 109.713 768.29 126.663 Q 768.29 137.613 760.64 150.513 L 760.64 150.363 Q 760.34 150.963 760.34 151.263 Q 760.34 151.713 761.24 152.613 L 761.24 152.763 Z M 744.59 126.663 Q 742.34 122.463 738.89 121.563 Q 736.49 121.263 735.14 121.263 Q 731.24 120.963 729.29 120.513 Q 729.74 123.063 729.74 128.313 L 729.74 133.713 Q 729.74 137.463 729.89 139.563 L 734.24 139.563 Q 740.84 139.563 743.24 135.063 Q 745.19 131.463 745.19 129.213 Q 745.19 127.863 744.59 126.663 Z M 744.59 172.713 Q 744.59 170.163 743.69 167.163 L 743.69 167.313 Q 742.94 165.663 741.59 164.313 Q 740.24 162.963 738.89 162.663 Q 736.49 162.063 731.84 161.763 Q 731.39 161.763 730.865 161.838 Q 730.34 161.913 729.74 161.763 Q 728.24 168.063 728.24 172.713 Q 728.24 178.113 729.89 181.113 Q 735.29 181.263 738.365 180.738 Q 741.44 180.213 743.54 177.663 Q 744.59 176.163 744.59 172.713 Z" style="text-transform: capitalize;"/>
  <path d="M 807.287 98.013 Q 807.287 115.563 806.837 133.413 Q 806.237 157.113 806.237 170.763 Q 806.237 186.513 807.137 202.113 Q 804.887 204.363 795.437 204.363 Q 790.037 204.363 787.487 204.213 L 785.687 204.063 L 782.987 203.913 Q 779.987 203.913 775.337 205.113 Q 776.237 192.063 776.237 177.363 Q 776.237 171.513 775.937 160.113 L 775.787 151.413 Q 775.187 135.513 775.187 125.613 Q 775.187 110.763 776.537 96.363 Q 778.487 96.063 780.737 96.063 Q 781.937 96.063 784.037 96.288 Q 786.137 96.513 788.987 96.363 Q 796.787 96.813 801.437 96.663 L 807.287 96.663 Z" style="text-transform: capitalize;"/>
  <path d="M 874.938 174.963 Q 880.938 184.113 884.613 190.413 Q 888.288 196.713 890.688 203.163 L 888.288 203.163 Q 886.488 203.163 880.188 203.463 Q 873.888 203.763 870.138 203.763 Q 868.038 203.763 863.838 203.463 L 861.288 203.313 Q 851.538 181.113 843.888 170.013 L 843.888 173.913 Q 843.888 183.213 844.938 197.913 L 844.938 197.763 Q 845.088 198.813 845.088 201.363 Q 839.988 203.763 828.288 203.763 L 824.688 203.613 L 816.738 203.613 Q 815.088 203.613 815.088 176.463 Q 815.088 151.863 814.638 127.188 Q 814.188 102.513 813.288 97.563 L 817.338 96.963 Q 826.338 95.763 832.188 95.163 Q 838.038 94.563 844.188 94.563 Q 850.788 94.563 855.438 95.163 Q 864.138 96.213 871.713 101.163 Q 879.288 106.113 883.863 113.313 Q 888.438 120.513 888.438 128.163 Q 888.438 135.513 883.638 144.213 Q 880.638 149.613 875.688 153.213 Q 870.738 156.813 863.838 157.563 Q 867.888 164.763 873.288 172.563 Q 874.338 174.363 874.938 174.963 Z M 853.338 136.713 Q 855.438 136.113 856.638 133.713 Q 857.838 131.313 857.838 128.013 Q 857.838 121.863 854.838 120.063 Q 852.888 118.863 850.863 118.563 Q 848.838 118.263 846.288 118.263 L 839.838 119.313 Q 840.138 123.813 840.138 126.963 Q 840.138 135.063 840.588 136.863 Q 843.138 137.163 846.888 137.163 Q 850.338 137.163 853.338 136.713 Z" style="text-transform: capitalize;"/>
  <path d="M 918.883 123.213 Q 918.583 123.813 918.133 132.663 Q 917.683 141.513 917.683 150.663 Q 917.683 159.963 918.133 166.263 Q 918.583 170.313 920.533 174.138 Q 922.483 177.963 925.183 179.313 Q 930.433 179.613 933.133 174.513 L 932.983 174.513 Q 934.333 171.663 934.333 165.963 Q 934.333 161.463 934.933 158.913 Q 938.683 159.513 942.133 159.513 L 949.033 159.363 Q 954.433 159.363 959.233 160.563 Q 961.033 165.813 961.033 171.513 Q 961.033 180.063 956.758 187.713 Q 952.483 195.363 944.983 200.163 Q 937.483 204.963 928.333 205.263 Q 925.633 205.713 922.033 205.713 Q 910.333 205.713 901.483 200.463 Q 892.633 195.213 891.583 184.713 Q 890.833 169.713 890.833 152.463 Q 890.833 138.213 890.983 129.063 L 891.133 122.313 Q 890.983 120.063 891.508 117.138 Q 892.033 114.213 892.933 111.963 Q 894.283 108.513 896.458 105.063 Q 898.633 101.613 901.033 99.363 Q 904.183 96.813 910.333 95.013 Q 916.183 93.213 922.483 93.213 Q 932.683 93.213 941.683 97.938 Q 950.683 102.663 956.083 110.838 Q 961.483 119.013 961.483 128.613 Q 961.483 134.313 959.383 140.013 Q 953.083 141.363 948.883 141.363 Q 943.183 141.363 933.133 139.413 L 932.683 133.713 Q 932.383 126.813 930.958 123.288 Q 929.533 119.763 924.883 119.913 Q 924.733 119.913 924.508 119.988 Q 924.283 120.063 923.833 120.063 L 923.983 120.063 Q 919.333 120.813 918.883 123.213 Z" style="text-transform: capitalize;"/>
  <path d="M 1034.229 202.413 Q 1028.079 203.463 1018.029 203.463 Q 1012.929 203.463 1008.729 203.763 Q 1007.829 197.313 1007.379 180.963 Q 1007.079 168.363 1006.029 161.613 L 1000.329 161.313 Q 995.829 161.313 993.429 161.913 Q 992.979 166.263 992.979 170.163 Q 992.979 176.913 993.129 180.213 L 993.129 184.113 L 993.279 188.013 Q 993.279 197.013 992.529 201.663 Q 989.079 203.613 984.129 203.613 Q 981.729 203.613 978.129 203.313 L 976.779 203.163 Q 974.079 202.863 973.179 202.863 L 968.379 203.163 Q 967.329 189.663 966.279 162.513 Q 965.229 135.363 965.229 114.213 Q 965.229 102.213 965.379 97.413 L 982.329 97.113 Q 986.229 97.113 989.379 98.163 Q 990.129 104.613 990.429 113.013 L 990.579 116.613 Q 990.879 123.213 991.329 127.638 Q 991.779 132.063 992.829 137.313 L 998.529 137.913 Q 1000.029 137.913 1001.454 137.613 Q 1002.879 137.313 1004.229 137.163 L 1004.529 137.163 Q 1005.579 125.763 1005.579 115.113 Q 1005.579 107.313 1005.129 98.313 Q 1008.579 97.263 1013.529 96.663 Q 1018.479 96.063 1023.129 96.063 Q 1027.179 96.063 1030.179 96.363 Z" style="text-transform: capitalize;"/>
</svg>